<svg width="720" height="320" viewBox="0 0 720 320" fill="none" xmlns="http://www.w3.org/2000/svg">
  <defs>
    <linearGradient id="bg" x1="0" y1="0" x2="720" y2="320" gradientUnits="userSpaceOnUse">
      <stop stop-color="#073B5A"/>
      <stop offset="1" stop-color="#0A5C7A"/>
    </linearGradient>
    <filter id="glow" x="-20%" y="-20%" width="140%" height="140%">
      <feGaussianBlur stdDeviation="3" result="blur"/>
      <feMerge>
        <feMergeNode in="blur"/>
        <feMergeNode in="SourceGraphic"/>
      </feMerge>
    </filter>
  </defs>
  <rect x="10" y="10" width="700" height="300" rx="18" fill="url(#bg)" stroke="#E9F8FF" stroke-width="4"/>
  <text x="50" y="66" fill="#FF6FD8" font-family="Inter, Segoe UI, Arial, sans-serif" font-size="38" font-weight="800" filter="url(#glow)">Primary Language Focus</text>
  <text x="50" y="102" fill="#9CF7C7" font-family="Inter, Segoe UI, Arial, sans-serif" font-size="16" font-weight="600">Data engineering centered stack</text>

  <text x="52" y="150" fill="#BFFFD8" font-family="Inter, Segoe UI, Arial, sans-serif" font-size="24" font-weight="700">Python</text>
  <rect x="190" y="130" width="440" height="24" rx="12" fill="#10384C"/>
  <rect x="190" y="130" width="385" height="24" rx="12" fill="#1E9BFF"/>
  <text x="590" y="150" fill="#BFFFD8" font-family="Inter, Segoe UI, Arial, sans-serif" font-size="20" font-weight="700">High</text>

  <text x="52" y="196" fill="#BFFFD8" font-family="Inter, Segoe UI, Arial, sans-serif" font-size="24" font-weight="700">SQL / PLpgSQL</text>
  <rect x="190" y="176" width="440" height="24" rx="12" fill="#10384C"/>
  <rect x="190" y="176" width="300" height="24" rx="12" fill="#38D9FF"/>
  <text x="510" y="196" fill="#BFFFD8" font-family="Inter, Segoe UI, Arial, sans-serif" font-size="20" font-weight="700">Strong</text>

  <text x="52" y="242" fill="#BFFFD8" font-family="Inter, Segoe UI, Arial, sans-serif" font-size="24" font-weight="700">Scala</text>
  <rect x="190" y="222" width="440" height="24" rx="12" fill="#10384C"/>
  <rect x="190" y="222" width="185" height="24" rx="12" fill="#DC322F"/>
  <text x="395" y="242" fill="#BFFFD8" font-family="Inter, Segoe UI, Arial, sans-serif" font-size="20" font-weight="700">Learning / Data Systems</text>

  <text x="52" y="288" fill="#BFFFD8" font-family="Inter, Segoe UI, Arial, sans-serif" font-size="24" font-weight="700">TypeScript</text>
  <rect x="190" y="268" width="440" height="24" rx="12" fill="#10384C"/>
  <rect x="190" y="268" width="115" height="24" rx="12" fill="#007ACC"/>
  <text x="325" y="288" fill="#BFFFD8" font-family="Inter, Segoe UI, Arial, sans-serif" font-size="20" font-weight="700">Supporting apps</text>
</svg>
